Coordinates
version=1
nRows=19
nColumns=18
inDegrees=yes

Units are S.I. units (second, meters, Newtons, ...)
If the header above contains a line with 'inDegrees', this indicates whether rotational values are in degrees (yes) or radians (no).

endheader
time	ground_thorax_rot_x	ground_thorax_rot_y	ground_thorax_rot_z	ground_thorax_tx	ground_thorax_ty	ground_thorax_tz	clav_prot	clav_elev	scapula_abduction	scapula_elevation	scapula_upward_rot	scapula_winging	plane_elv	shoulder_elv	axial_rot	elbow_flexion	pro_sup
      0.00000000	      3.41475695	     -3.25397713	     -8.93760343	     -0.00465496	      0.00352576	      0.00110402	    -20.66562502	     -6.42771665	    -11.63895122	     -4.09732557	      7.62141605	      7.28660573	    -18.55139173	     20.06107707	     48.17904355	      0.00000000	     34.32000000
      0.01000000	      3.41435928	     -3.25368628	     -8.93761927	     -0.00464430	      0.00351156	      0.00116295	    -20.66570260	     -6.42762433	    -11.63884751	     -4.09731568	      7.62171020	      7.28641795	    -18.55141337	     20.06149017	     48.17906053	      0.00000000	     34.32000000
      0.02000000	      3.41382979	     -3.25364741	     -8.93791767	     -0.00465014	      0.00350279	      0.00121003	    -20.66581973	     -6.42732198	    -11.63892050	     -4.09719298	      7.62208826	      7.28623602	    -18.55154677	     20.06214172	     48.17907949	      0.00000000	     34.32000000
      0.03000000	      3.40384566	     -3.26387968	     -8.95218638	     -0.00461661	      0.00344532	      0.00119200	    -20.67189651	     -6.41511678	    -11.64768480	     -4.09043011	      7.63064958	      7.28063804	    -18.55956426	     20.08335158	     48.17911439	      0.00000000	     34.32000000
      0.04000000	      3.40407928	     -3.26420079	     -8.95242196	     -0.00463660	      0.00344716	      0.00118442	    -20.67198691	     -6.41501327	    -11.64789472	     -4.09034227	      7.63060161	      7.28062910	    -18.55975790	     20.08350807	     48.17908462	      0.00000000	     34.32000000
      0.05000000	      3.40454640	     -3.26448753	     -8.95255536	     -0.00464385	      0.00342949	      0.00117726	    -20.67205413	     -6.41501811	    -11.64808221	     -4.09031103	      7.63046337	      7.28067106	    -18.55996386	     20.08358214	     48.17904991	      0.00000000	     34.32000000
      0.06000000	      3.40523780	     -3.26481240	     -8.95259019	     -0.00465547	      0.00340193	      0.00116651	    -20.67210792	     -6.41514770	    -11.64825650	     -4.09035613	      7.63025322	      7.28077159	    -18.56017177	     20.08355499	     48.17900962	      0.00000000	     34.32000000
      0.07000000	      3.40589768	     -3.26520755	     -8.95257604	     -0.00468103	      0.00338429	      0.00115952	    -20.67217745	     -6.41531666	    -11.64842474	     -4.09044629	      7.63009075	      7.28087582	    -18.56035562	     20.08352705	     48.17897095	      0.00000000	     34.32000000
      0.08000000	      3.40643221	     -3.26556182	     -8.95250127	     -0.00470715	      0.00338090	      0.00116227	    -20.67224251	     -6.41548965	    -11.64854257	     -4.09056198	      7.63000867	      7.28096167	    -18.56049396	     20.08351967	     48.17893805	      0.00000000	     34.32000000
      0.09000000	      3.40692119	     -3.26585008	     -8.95240936	     -0.00472306	      0.00338658	      0.00116776	    -20.67228187	     -6.41565148	    -11.64861747	     -4.09066787	      7.62992802	      7.28104063	    -18.56060928	     20.08349590	     48.17890851	      0.00000000	     34.32000000
      0.10000000	      3.40728236	     -3.26603119	     -8.95231996	     -0.00472082	      0.00339300	      0.00118088	    -20.67232146	     -6.41575898	    -11.64866794	     -4.09075125	      7.62991797	      7.28108405	    -18.56071193	     20.08357865	     48.17888709	      0.00000000	     34.32000000
      0.11000000	      3.40749139	     -3.26615868	     -8.95221633	     -0.00470134	      0.00339416	      0.00119251	    -20.67240490	     -6.41580794	    -11.64873939	     -4.09082833	      7.63003872	      7.28108067	    -18.56080399	     20.08383826	     48.17887620	      0.00000000	     34.32000000
      0.12000000	      3.40769842	     -3.26641450	     -8.95215522	     -0.00467836	      0.00339981	      0.00117576	    -20.67253290	     -6.41582053	    -11.64890154	     -4.09087670	      7.63014914	      7.28107203	    -18.56090492	     20.08410248	     48.17886599	      0.00000000	     34.32000000
      0.13000000	      3.40790272	     -3.26680336	     -8.95223636	     -0.00466491	      0.00342352	      0.00114080	    -20.67265914	     -6.41576953	    -11.64913776	     -4.09084106	      7.63013783	      7.28107065	    -18.56102930	     20.08423893	     48.17884889	      0.00000000	     34.32000000
      0.14000000	      3.40806002	     -3.26714556	     -8.95239174	     -0.00466115	      0.00344919	      0.00112247	    -20.67274907	     -6.41568641	    -11.64935165	     -4.09075998	      7.63006170	      7.28106998	    -18.56116683	     20.08429689	     48.17882735	      0.00000000	     34.32000000
      0.15000000	      3.40806002	     -3.26714556	     -8.95239174	     -0.00466115	      0.00344919	      0.00112247	    -20.67274907	     -6.41568641	    -11.64935165	     -4.09075998	      7.63006170	      7.28106998	    -18.56116683	     20.08429689	     48.17882735	      0.00000000	     34.32000000
      0.16000000	      3.40835757	     -3.26726444	     -8.95229817	     -0.00464087	      0.00344721	      0.00111760	    -20.67280094	     -6.41575097	    -11.64945858	     -4.09079661	      7.63000212	      7.28111189	    -18.56126559	     20.08425650	     48.17880108	      0.00000000	     34.32000000
      0.17000000	      3.40875508	     -3.26755338	     -8.95227581	     -0.00463571	      0.00343871	      0.00110557	    -20.67288673	     -6.41581677	    -11.64965658	     -4.09081860	      7.62988009	      7.28117281	    -18.56140964	     20.08420622	     48.17876826	      0.00000000	     34.32000000
      0.18000000	      3.40911108	     -3.26828512	     -8.95260787	     -0.00467256	      0.00344074	      0.00109290	    -20.67304492	     -6.41572645	    -11.65007058	     -4.09069250	      7.62964997	      7.28121387	    -18.56167475	     20.08423817	     48.17872822	      0.00000000	     34.32000000
